{
    "asset" : {
        "generator" : "Khronos glTF Blender I/O v1.6.16",
        "version" : "2.0"
    },
    "scene" : 0,
    "scenes" : [
        {
            "name" : "Scene",
            "nodes" : [
                4,
                5
            ]
        }
    ],
    "nodes" : [
        {
            "mesh" : 0,
            "name" : "Mesh_0"
        },
        {
            "children" : [
                0
            ],
            "name" : "Node_3"
        },
        {
            "children" : [
                1
            ],
            "name" : "d666a54e02694e0896cf0a03eb6b10f6.obj.cleaner.gles",
            "translation" : [
                -1.2375999689102173,
                -0.7156000137329102,
                0
            ]
        },
        {
            "children" : [
                2
            ],
            "name" : "RootNode (model correction matrix)"
        },
        {
            "children" : [
                3
            ],
            "name" : "RootNode (gltf orientation matrix)",
            "rotation" : [
                -0.7071068286895752,
                0,
                0,
                0.7071068286895752
            ]
        },
        {
            "name" : "Camera",
            "rotation" : [
                0.7071068286895752,
                0,
                0,
                0.7071068286895752
            ],
            "translation" : [
                -0.08005434274673462,
                4.04738187789917,
                26.304365158081055
            ]
        }
    ],
    "materials" : [
        {
            "doubleSided" : true,
            "name" : "01___Default",
            "normalTexture" : {
                "index" : 0
            },
            "pbrMetallicRoughness" : {
                "baseColorTexture" : {
                    "index" : 1
                },
                "metallicRoughnessTexture" : {
                    "index" : 2
                }
            }
        },
        {
            "doubleSided" : true,
            "name" : "01___Default.001",
            "normalTexture" : {
                "index" : 3
            },
            "pbrMetallicRoughness" : {
                "baseColorTexture" : {
                    "index" : 4
                },
                "metallicFactor" : 0,
                "roughnessFactor" : 0.5
            }
        }
    ],
    "meshes" : [
        {
            "name" : "Mesh_0",
            "primitives" : [
                {
                    "attributes" : {
                        "POSITION" : 0,
                        "NORMAL" : 1,
                        "TEXCOORD_0" : 2
                    },
                    "indices" : 3,
                    "material" : 0
                },
                {
                    "attributes" : {
                        "POSITION" : 4,
                        "NORMAL" : 5,
                        "TEXCOORD_0" : 6
                    },
                    "indices" : 7,
                    "material" : 1
                }
            ]
        }
    ],
    "textures" : [
        {
            "sampler" : 0,
            "source" : 0
        },
        {
            "sampler" : 0,
            "source" : 1
        },
        {
            "sampler" : 0,
            "source" : 2
        },
        {
            "sampler" : 0,
            "source" : 0
        },
        {
            "sampler" : 0,
            "source" : 3
        }
    ],
    "images" : [
        {
            "bufferView" : 4,
            "mimeType" : "image/png",
            "name" : "01___Default_normal"
        },
        {
            "bufferView" : 5,
            "mimeType" : "image/png",
            "name" : "01___Default_baseColor"
        },
        {
            "bufferView" : 6,
            "mimeType" : "image/png",
            "name" : "01___Default_metallicRoughness"
        },
        {
            "bufferView" : 11,
            "mimeType" : "image/png",
            "name" : "lighterTex"
        }
    ],
    "accessors" : [
        {
            "bufferView" : 0,
            "componentType" : 5126,
            "count" : 764,
            "max" : [
                2.4751999378204346,
                1.4312000274658203,
                7.612100124359131
            ],
            "min" : [
                0,
                0,
                0
            ],
            "type" : "VEC3"
        },
        {
            "bufferView" : 1,
            "componentType" : 5126,
            "count" : 764,
            "type" : "VEC3"
        },
        {
            "bufferView" : 2,
            "componentType" : 5126,
            "count" : 764,
            "type" : "VEC2"
        },
        {
            "bufferView" : 3,
            "componentType" : 5123,
            "count" : 1476,
            "type" : "SCALAR"
        },
        {
            "bufferView" : 7,
            "componentType" : 5126,
            "count" : 34,
            "max" : [
                2.4751999378204346,
                1.4312000274658203,
                6.556000232696533
            ],
            "min" : [
                0,
                0,
                0
            ],
            "type" : "VEC3"
        },
        {
            "bufferView" : 8,
            "componentType" : 5126,
            "count" : 34,
            "type" : "VEC3"
        },
        {
            "bufferView" : 9,
            "componentType" : 5126,
            "count" : 34,
            "type" : "VEC2"
        },
        {
            "bufferView" : 10,
            "componentType" : 5123,
            "count" : 96,
            "type" : "SCALAR"
        }
    ],
    "bufferViews" : [
        {
            "buffer" : 0,
            "byteLength" : 9168,
            "byteOffset" : 0
        },
        {
            "buffer" : 0,
            "byteLength" : 9168,
            "byteOffset" : 9168
        },
        {
            "buffer" : 0,
            "byteLength" : 6112,
            "byteOffset" : 18336
        },
        {
            "buffer" : 0,
            "byteLength" : 2952,
            "byteOffset" : 24448
        },
        {
            "buffer" : 0,
            "byteLength" : 570150,
            "byteOffset" : 27400
        },
        {
            "buffer" : 0,
            "byteLength" : 999088,
            "byteOffset" : 597552
        },
        {
            "buffer" : 0,
            "byteLength" : 695556,
            "byteOffset" : 1596640
        },
        {
            "buffer" : 0,
            "byteLength" : 408,
            "byteOffset" : 2292196
        },
        {
            "buffer" : 0,
            "byteLength" : 408,
            "byteOffset" : 2292604
        },
        {
            "buffer" : 0,
            "byteLength" : 272,
            "byteOffset" : 2293012
        },
        {
            "buffer" : 0,
            "byteLength" : 192,
            "byteOffset" : 2293284
        },
        {
            "buffer" : 0,
            "byteLength" : 114662,
            "byteOffset" : 2293476
        }
    ],
    "samplers" : [
        {
            "magFilter" : 9729,
            "minFilter" : 9987
        }
    ],
    "buffers" : [
        {
            "byteLength" : 2408140,
            "uri" : "data:application/octet-stream;base64,"
        }
    ]
}
