<?xml version="1.0" encoding="utf-8"?>
<!-- Generator: Adobe Adobe Illustrator 24.2.0, SVG Export Plug-In . SVG Version: 6.00 Build 0)  -->
<svg version="1.1" id="Ebene_1" xmlns="http://www.w3.org/2000/svg" xmlns:xlink="http://www.w3.org/1999/xlink" x="0px" y="0px"
	 viewBox="0 0 800 600" style="enable-background:new 0 0 800 600;" xml:space="preserve">
<style type="text/css">
	.st0{stroke:#000000;stroke-width:4;stroke-miterlimit:10;}
	.st1{fill:#F6A02D;}
	.st2{display:none;fill:#3F2094;}
</style>
<g>
	<path class="st0" d="M52.62,380.18c0.22,4.07,1.87,7.91,4.92,11.53c3.05,3.61,7.51,5.43,13.39,5.43c5.65,0,9.72-1.75,12.21-5.26
		c2.48-3.51,3.73-7.97,3.73-13.39v-33.91h-0.68c-3.85,5.65-8.42,10-13.73,13.05c-5.31,3.05-11.48,4.58-18.48,4.58
		c-14.47,0-24.53-5.43-30.18-16.28c-2.03-3.84-3.51-8.59-4.41-14.24c-0.91-5.65-1.36-13.22-1.36-22.72v-65.44
		c0-12.43,0.34-21.58,1.02-27.47c1.36-11.3,6.67-19.78,15.94-25.43c4.29-2.94,10.73-4.41,19.33-4.41c4.29,0,7.97,0.46,11.02,1.36
		c3.05,0.91,5.82,2.15,8.31,3.73c2.48,1.58,4.75,3.45,6.78,5.59c2.03,2.15,4.18,4.47,6.44,6.95v-15.6h34.59V381.2
		c0,5.88-0.96,11.81-2.88,17.8c-1.92,5.99-5.03,11.36-9.32,16.11c-4.3,4.97-9.72,8.99-16.28,12.04c-6.56,3.05-14.36,4.58-23.4,4.58
		c-5.2,0-10.63-0.85-16.28-2.54c-5.65-1.7-10.85-4.58-15.6-8.65c-4.98-3.85-9.21-8.99-12.72-15.43c-3.51-6.44-5.82-14.75-6.95-24.92
		H52.62z M52.62,307.28c0,5.43,1.19,10.17,3.56,14.24c2.37,4.07,6.83,6.1,13.39,6.1c4.97,0,9.1-1.75,12.38-5.26
		c3.27-3.5,4.92-7.97,4.92-13.39v-66.8c0-6.33-1.58-11.47-4.75-15.43c-3.17-3.95-7.35-5.93-12.55-5.93
		c-5.88,0-10.17,2.15-12.88,6.44c-2.71,4.3-4.07,9.95-4.07,16.95V307.28z"/>
	<path class="st0" d="M138.4,245.91c0-7,0.45-13.45,1.36-19.33c0.9-5.88,2.6-11.07,5.09-15.6c4.07-7.46,9.89-13.45,17.46-17.97
		c7.57-4.52,16.78-6.78,27.63-6.78s20.06,2.26,27.63,6.78c7.57,4.52,13.39,10.51,17.46,17.97c2.49,4.52,4.18,9.72,5.09,15.6
		c0.9,5.88,1.36,12.32,1.36,19.33v56.63c0,7.01-0.46,13.45-1.36,19.33c-0.91,5.88-2.6,11.08-5.09,15.6
		c-4.07,7.46-9.89,13.45-17.46,17.97c-7.58,4.52-16.78,6.78-27.63,6.78s-20.06-2.26-27.63-6.78c-7.58-4.52-13.39-10.51-17.46-17.97
		c-2.49-4.52-4.19-9.72-5.09-15.6c-0.91-5.88-1.36-12.32-1.36-19.33V245.91z M147.22,161.48v-34.59h30.52v34.59H147.22z
		 M172.99,307.96c0,6.56,1.53,11.48,4.58,14.75c3.05,3.28,7.17,4.92,12.38,4.92c5.2,0,9.33-1.64,12.38-4.92
		c3.05-3.27,4.58-8.19,4.58-14.75v-67.48c0-6.55-1.53-11.47-4.58-14.75c-3.05-3.27-7.18-4.92-12.38-4.92
		c-5.2,0-9.32,1.64-12.38,4.92c-3.05,3.28-4.58,8.2-4.58,14.75V307.96z M202.15,161.48v-34.59h30.52v34.59H202.15z"/>
	<path class="st0" d="M258.44,360.18V188.26h34.59v16.61h0.68c3.61-5.43,7.97-9.89,13.05-13.39c5.09-3.5,11.58-5.26,19.5-5.26
		c7.46,0,13.67,1.81,18.65,5.43c4.97,3.62,9.04,7.58,12.21,11.87c4.29-4.75,9.04-8.82,14.24-12.21c5.2-3.39,12.43-5.09,21.7-5.09
		c4.29,0,8.7,0.74,13.22,2.2c4.52,1.47,8.59,3.9,12.21,7.29c3.61,3.39,6.55,7.75,8.82,13.05c2.26,5.31,3.39,11.81,3.39,19.5v131.9
		H396.1V241.16c0-6.33-1.47-11.3-4.41-14.92c-2.94-3.61-7.12-5.43-12.55-5.43c-6.56,0-11.08,2.03-13.56,6.1
		c-2.49,4.07-3.73,9.95-3.73,17.63v115.63h-34.59V241.16c0-6.33-1.47-11.3-4.41-14.92c-2.94-3.61-7.12-5.43-12.55-5.43
		c-6.56,0-11.08,2.03-13.56,6.1c-2.49,4.07-3.73,9.95-3.73,17.63v115.63H258.44z"/>
	<path class="st0" d="M450.69,360.18V118.75h34.59v85.11h0.68c3.84-5.65,8.42-10,13.73-13.05c5.31-3.05,11.36-4.58,18.14-4.58
		c8.36,0,14.86,1.47,19.5,4.41c4.63,2.94,8.42,6.67,11.36,11.19c2.26,3.62,3.73,8.37,4.41,14.24c0.68,5.88,1.02,15.04,1.02,27.47
		v65.44c0,9.49-0.46,17.07-1.36,22.72c-0.91,5.65-2.37,10.4-4.41,14.24c-5.88,10.85-15.94,16.28-30.18,16.28
		c-8.59,0-15.15-1.7-19.67-5.09c-4.52-3.39-8.93-7.57-13.22-12.55v15.6H450.69z M519.53,241.16c0-5.43-1.19-10.17-3.56-14.24
		c-2.37-4.07-6.84-6.1-13.39-6.1c-4.97,0-9.1,1.75-12.38,5.26c-3.28,3.51-4.92,7.97-4.92,13.39v66.8c0,6.33,1.58,11.48,4.75,15.43
		c3.16,3.96,7.34,5.93,12.55,5.93c5.88,0,10.17-2.15,12.89-6.44c2.71-4.29,4.07-9.94,4.07-16.95V241.16z"/>
	<path class="st0" d="M571.06,245.91c0-7,0.45-13.45,1.36-19.33c0.9-5.88,2.6-11.07,5.09-15.6c4.07-7.46,9.89-13.45,17.46-17.97
		c7.57-4.52,16.78-6.78,27.63-6.78s20.06,2.26,27.63,6.78c7.57,4.52,13.39,10.51,17.46,17.97c2.49,4.52,4.18,9.72,5.09,15.6
		c0.9,5.88,1.36,12.32,1.36,19.33v56.63c0,7.01-0.46,13.45-1.36,19.33c-0.91,5.88-2.6,11.08-5.09,15.6
		c-4.07,7.46-9.89,13.45-17.46,17.97c-7.58,4.52-16.78,6.78-27.63,6.78s-20.06-2.26-27.63-6.78c-7.58-4.52-13.39-10.51-17.46-17.97
		c-2.49-4.52-4.19-9.72-5.09-15.6c-0.91-5.88-1.36-12.32-1.36-19.33V245.91z M579.88,161.48v-34.59h30.52v34.59H579.88z
		 M605.65,307.96c0,6.56,1.53,11.48,4.58,14.75c3.05,3.28,7.17,4.92,12.38,4.92c5.2,0,9.33-1.64,12.38-4.92
		c3.05-3.27,4.58-8.19,4.58-14.75v-67.48c0-6.55-1.53-11.47-4.58-14.75c-3.05-3.27-7.18-4.92-12.38-4.92
		c-5.2,0-9.32,1.64-12.38,4.92c-3.05,3.28-4.58,8.2-4.58,14.75V307.96z M634.81,161.48v-34.59h30.52v34.59H634.81z"/>
	<path class="st0" d="M727.72,310.67c0,5.43,1.53,9.61,4.58,12.55c3.05,2.94,7.17,4.41,12.38,4.41c6.55,0,10.9-1.92,13.05-5.76
		c2.15-3.84,3.44-7.68,3.9-11.53h34.59c0,15.15-4.64,27.35-13.9,36.62c-4.53,4.75-9.95,8.48-16.28,11.19
		c-6.33,2.71-13.45,4.07-21.36,4.07c-10.85,0-20.06-2.26-27.63-6.78c-7.58-4.52-13.39-10.51-17.46-17.97
		c-2.49-4.52-4.19-9.72-5.09-15.6c-0.91-5.88-1.36-12.32-1.36-19.33v-56.63c0-7,0.45-13.45,1.36-19.33c0.9-5.88,2.6-11.07,5.09-15.6
		c4.07-7.46,9.89-13.45,17.46-17.97c7.57-4.52,16.78-6.78,27.63-6.78c7.91,0,15.09,1.36,21.53,4.07
		c6.44,2.71,11.92,6.44,16.45,11.19c9.04,10.17,13.56,23.4,13.56,39.67h-34.59c0-7-1.53-12.15-4.58-15.43
		c-3.05-3.27-7.18-4.92-12.38-4.92c-5.2,0-9.32,1.64-12.38,4.92c-3.05,3.28-4.58,8.2-4.58,14.75V310.67z"/>
</g>
<g>
	<path class="st1" d="M144.45,375.2h15.13c3.06,0,5.75,0.35,8.05,1.04c2.31,0.69,4.31,1.62,6,2.79c1.69,1.16,3.1,2.5,4.23,4.01
		c1.12,1.51,2.01,3.06,2.66,4.65c0.65,1.59,1.12,3.19,1.41,4.78c0.29,1.59,0.43,3.06,0.43,4.41c0,2.78-0.51,5.46-1.53,8.05
		c-1.02,2.59-2.53,4.9-4.53,6.92c-2,2.02-4.48,3.64-7.44,4.87c-2.96,1.23-6.38,1.84-10.26,1.84h-14.15V375.2z M150.33,413.05h7.41
		c2.49,0,4.85-0.34,7.07-1.01c2.23-0.67,4.17-1.68,5.85-3.03c1.67-1.35,3-3.03,3.98-5.05c0.98-2.02,1.47-4.38,1.47-7.07
		c0-1.39-0.22-3.01-0.67-4.87c-0.45-1.86-1.3-3.62-2.54-5.3c-1.25-1.67-2.97-3.09-5.18-4.26s-5.06-1.75-8.57-1.75h-8.82V413.05z"/>
	<path class="st1" d="M201.91,375.2h5.33l18.56,43.37h-6.86l-4.35-10.72h-20.64l-4.29,10.72h-6.86L201.91,375.2z M212.44,402.7
		l-8.08-19.91h-0.12l-8.21,19.91H212.44z"/>
	<path class="st1" d="M232.35,380.71h-13.96v-5.51h33.81v5.51h-13.96v37.85h-5.88V380.71z"/>
	<path class="st1" d="M270.01,375.2h8.76l13.78,32.83h0.25l13.66-32.83h8.76v43.37h-5.88v-35.65h-0.12l-14.64,35.65h-3.92
		l-14.64-35.65h-0.12v35.65h-5.88V375.2z"/>
	<path class="st1" d="M337.02,375.2h5.33l18.56,43.37h-6.86l-4.35-10.72h-20.64l-4.29,10.72h-6.86L337.02,375.2z M347.56,402.7
		l-8.08-19.91h-0.12l-8.21,19.91H347.56z"/>
	<path class="st1" d="M400.97,394.31v21.38c-1.06,0.65-2.27,1.23-3.61,1.72c-1.35,0.49-2.75,0.91-4.2,1.26
		c-1.45,0.35-2.92,0.6-4.41,0.77c-1.49,0.16-2.89,0.25-4.2,0.25c-3.67,0-6.95-0.61-9.83-1.84s-5.31-2.88-7.29-4.96
		s-3.49-4.5-4.53-7.26c-1.04-2.76-1.56-5.67-1.56-8.73c0-3.23,0.56-6.23,1.68-9c1.12-2.78,2.67-5.19,4.66-7.23
		c1.98-2.04,4.36-3.64,7.14-4.81c2.78-1.16,5.82-1.75,9.13-1.75c4,0,7.27,0.5,9.8,1.5c2.53,1,4.65,2.38,6.37,4.13l-4.17,4.47
		c-1.8-1.71-3.7-2.91-5.7-3.58c-2-0.67-4.1-1.01-6.31-1.01c-2.49,0-4.74,0.46-6.74,1.38c-2,0.92-3.72,2.15-5.14,3.71
		c-1.43,1.55-2.53,3.38-3.31,5.48c-0.78,2.1-1.16,4.34-1.16,6.71c0,2.45,0.43,4.73,1.29,6.83c0.86,2.1,2.04,3.93,3.55,5.48
		c1.51,1.55,3.29,2.77,5.33,3.64c2.04,0.88,4.27,1.32,6.68,1.32c2.08,0,4.05-0.19,5.91-0.58c1.86-0.39,3.44-0.95,4.75-1.68v-12.07
		h-9.62v-5.51H400.97z"/>
	<path class="st1" d="M422.77,375.2h5.33l18.56,43.37h-6.86l-4.35-10.72h-20.64l-4.29,10.72h-6.86L422.77,375.2z M433.31,402.7
		l-8.08-19.91h-0.12l-8.21,19.91H433.31z"/>
	<path class="st1" d="M446.17,413.05l24.68-32.34H446.9v-5.51h31.3v5.51l-24.56,32.34h24.93v5.51h-32.4V413.05z"/>
	<path class="st1" d="M483.59,375.2h5.88v43.37h-5.88V375.2z"/>
	<path class="st1" d="M498.11,375.2h7.72l23.89,35.65h0.12V375.2h5.88v43.37h-7.47l-24.13-35.65h-0.12v35.65h-5.88V375.2z"/>
</g>
<polyline class="st2" points="13.91,987.81 16.36,989.07 19.84,985.48 17.15,983.97 15.44,985.17 "/>
<polyline class="st2" points="-59.99,959.65 -57.98,959.92 -55.39,955.85 -57.94,955.77 -58.92,956.65 "/>
</svg>
